# xmcd
#
# Track frame offsets: 
#        150
#        18442
#        42145
#        65602
#
# Disc length: 1184 seconds
#
# Revision: 0
# Processed by: cddbd v1.5.1PL0 Copyright (c) Steve Scherf et al.
# Submitted via: ExactAudioCopy v0.95a5
#
DISCID=2c049e04
DTITLE=3rd Bass - Brooklyn Queens
DYEAR=1990
DGENRE=Hip-Hop
TTITLE0=Brooklyn Queens (1st Base 7" Mix)
TTITLE1=Brooklyn Queens (1st Base 12" Mix)
TTITLE2=Brooklyn Queens (Base Base Mix)
TTITLE3=Brooklyn Queens (Dub Base Mix)
EXTD=
EXTT0=
EXTT1=
EXTT2=
EXTT3=
PLAYORDER=
